<?xml version="1.0" ?><svg style="enable-background:new 0 0 512 512;" version="1.1" viewBox="0 0 512 512" xml:space="preserve" xmlns="http://www.w3.org/2000/svg" xmlns:xlink="http://www.w3.org/1999/xlink"><style type="text/css">
	.st0{fill:#f9eb60;}
	.st1{fill:#c30103;}
</style><g id="Layer_1"/><g id="Layer_2"><g><path class="st1" d="M300.4,241.6c1.6,0.1,3.2,0.2,4.8,0.3l2.5-4.3l9.5-15.9c-7.6-0.7-15.5-1.2-23.5-1.5    C299.3,225.8,301.8,233.8,300.4,241.6z"/><path class="st1" d="M355.8,226.8L343.3,246c13.6,2.1,26.3,4.9,37.7,8.3c28.9,8.7,38.5,18.2,40.1,21.1    c-1.6,2.9-11.3,12.4-40.1,21.1c-29,8.7-66.9,13.5-106.7,13.5c-39.8,0-77.6-4.8-106.7-13.5c-28.9-8.7-38.5-18.2-40.2-21.1    c1.6-3,11.3-12.5,40.2-21.1c23.5-7,52.8-11.5,84.2-13c-0.1-0.5-0.1-0.9-0.2-1.4l-12.4-9.2l-2.5-1.9l-9.1-6.8    c-70.1,6.7-121.3,28.1-121.3,53.4c0,0.3,0,0.5,0,0.8s0,0.5,0.1,0.8s0,0.5,0.1,0.8c0,0.3,0.1,0.6,0.1,0.9c0,0.2,0.1,0.5,0.1,0.7    c0,0.2,0.1,0.4,0.1,0.6c0,0,0,0.1,0,0.1c0.3,1,0.6,2,1,3c0.1,0.2,0.2,0.5,0.3,0.7c0.1,0.2,0.2,0.5,0.3,0.7    c0.1,0.2,0.2,0.3,0.2,0.5c0.1,0.2,0.2,0.3,0.3,0.5c0.3,0.5,0.5,0.9,0.8,1.4c0.1,0.2,0.2,0.3,0.3,0.5c0.1,0.2,0.3,0.4,0.4,0.6v0    c0.3,0.4,0.6,0.8,0.9,1.1c0.3,0.4,0.6,0.8,1,1.2c0.2,0.3,0.5,0.6,0.8,0.9c0.1,0.1,0.2,0.2,0.3,0.3c0.3,0.3,0.6,0.6,0.9,0.9    l0.1,0.1c0.4,0.4,0.7,0.7,1.1,1.1c0.4,0.4,0.8,0.8,1.3,1.2c0.4,0.3,0.7,0.6,1.1,1c0,0,0.1,0,0.1,0.1c0.4,0.4,0.9,0.7,1.3,1.1    c0,0,0.1,0.1,0.1,0.1c0.4,0.3,0.8,0.6,1.2,0.9c0.1,0.1,0.3,0.2,0.4,0.3l0.5,0.4c0.2,0.1,0.4,0.3,0.5,0.4c0.5,0.4,1,0.7,1.5,1.1    c0.3,0.2,0.6,0.4,0.9,0.6c0.3,0.2,0.6,0.4,0.9,0.6c0.9,0.6,1.9,1.2,2.9,1.8c0.3,0.2,0.6,0.4,1,0.6c0,0,0,0,0.1,0    c0.5,0.3,1,0.6,1.6,0.8c0.5,0.3,1.1,0.6,1.6,0.9c0.5,0.2,0.9,0.5,1.4,0.7c0.3,0.1,0.5,0.3,0.8,0.4c0.8,0.4,1.5,0.7,2.3,1.1    c0.5,0.2,1,0.5,1.5,0.7c0.5,0.2,1,0.5,1.5,0.7c0.6,0.3,1.2,0.5,1.8,0.8c0.1,0,0.2,0.1,0.4,0.2c0.6,0.3,1.3,0.5,2,0.8    c1.3,0.5,2.7,1.1,4.1,1.6c0.4,0.2,0.9,0.3,1.3,0.5c0.9,0.3,1.8,0.7,2.7,1c0.9,0.3,1.9,0.6,2.8,1s1.9,0.6,2.9,0.9    c0.9,0.3,1.9,0.6,2.8,0.9c1.7,0.5,3.5,1,5.3,1.5c0.8,0.2,1.6,0.4,2.4,0.6c0.1,0,0.3,0.1,0.5,0.1c0.6,0.2,1.2,0.3,1.8,0.5    c0.1,0,0.3,0.1,0.4,0.1c1.1,0.3,2.2,0.5,3.3,0.8c0,0,0.1,0,0.1,0c0.8,0.2,1.6,0.4,2.5,0.6c2.1,0.5,4.2,1,6.4,1.4    c1.1,0.2,2.3,0.5,3.4,0.7c0.8,0.2,1.5,0.3,2.3,0.5c0.1,0,0.3,0,0.4,0.1c0.5,0.1,1.1,0.2,1.6,0.3c0.9,0.2,1.8,0.3,2.7,0.5    c1.2,0.2,2.4,0.4,3.6,0.6c1.5,0.3,3,0.5,4.5,0.7c1,0.2,1.9,0.3,2.9,0.4c1.3,0.2,2.5,0.4,3.8,0.5c1.1,0.1,2.2,0.3,3.3,0.4    c0.3,0,0.7,0.1,1,0.1c0.9,0.1,1.8,0.2,2.7,0.3c0.5,0.1,0.9,0.1,1.4,0.2c0.9,0.1,1.8,0.2,2.7,0.3c2.8,0.3,5.5,0.6,8.4,0.9    c1.3,0.1,2.6,0.2,3.9,0.4c1.1,0.1,2.1,0.2,3.2,0.3c0.8,0.1,1.7,0.1,2.5,0.2c0.8,0.1,1.6,0.1,2.4,0.2c1.2,0.1,2.3,0.1,3.5,0.2    c1.6,0.1,3.2,0.2,4.8,0.3c1.4,0.1,2.8,0.1,4.2,0.2s2.8,0.1,4.2,0.2c1.2,0,2.3,0.1,3.5,0.1c0.3,0,0.6,0,0.9,0c1.1,0,2.2,0,3.3,0.1    c0.5,0,0.9,0,1.4,0c1.3,0,2.6,0,3.9,0c1.4,0,2.9,0,4.3,0c1.5,0,2.9,0,4.3,0c1.3,0,2.6,0,3.9,0c0.4,0,0.9,0,1.3,0    c1.1,0,2.2,0,3.3-0.1c0.3,0,0.6,0,0.9,0c1.2,0,2.3-0.1,3.5-0.1c1.4,0,2.8-0.1,4.2-0.2c1.4-0.1,2.8-0.1,4.2-0.2    c1.6-0.1,3.2-0.2,4.8-0.3c1.2-0.1,2.3-0.1,3.5-0.2c0.8-0.1,1.6-0.1,2.4-0.2c0.8-0.1,1.7-0.1,2.5-0.2c1.1-0.1,2.2-0.2,3.2-0.3    c1.3-0.1,2.6-0.2,3.9-0.4c2.8-0.3,5.6-0.5,8.4-0.9c0.9-0.1,1.8-0.2,2.7-0.3c0.5-0.1,0.9-0.1,1.4-0.2c0.9-0.1,1.8-0.2,2.7-0.3    c0.4,0,0.7-0.1,1-0.1c1.1-0.1,2.2-0.3,3.3-0.4c1.3-0.2,2.5-0.4,3.8-0.5c1-0.1,1.9-0.3,2.9-0.4c1.5-0.2,3-0.5,4.5-0.7    c1.2-0.2,2.4-0.4,3.6-0.6c0.9-0.2,1.8-0.3,2.7-0.5c0.6-0.1,1.1-0.2,1.6-0.3c0.1,0,0.3,0,0.4-0.1c0.8-0.1,1.5-0.3,2.3-0.5    c1.2-0.2,2.3-0.5,3.4-0.7c2.2-0.5,4.3-0.9,6.4-1.4c0.8-0.2,1.6-0.4,2.5-0.6c0,0,0.1,0,0.1,0c1.1-0.3,2.2-0.5,3.3-0.8    c0.2,0,0.3-0.1,0.5-0.1c0.6-0.2,1.2-0.3,1.8-0.5c0.1,0,0.3-0.1,0.5-0.1c0.8-0.2,1.6-0.4,2.3-0.6c1.8-0.5,3.5-1,5.3-1.5    c0.9-0.3,1.9-0.6,2.8-0.9c1-0.3,1.9-0.6,2.9-0.9c1-0.3,1.9-0.6,2.8-1c0.9-0.3,1.8-0.6,2.7-1c0.5-0.2,0.9-0.3,1.4-0.5    c1.4-0.5,2.8-1,4.1-1.6c0.7-0.3,1.3-0.5,2-0.8c0.1,0,0.3-0.1,0.4-0.2c0.6-0.3,1.3-0.5,1.8-0.8c0.5-0.2,1-0.4,1.5-0.7    c0.5-0.2,1-0.5,1.5-0.7c0.8-0.4,1.5-0.7,2.3-1.1c0.3-0.1,0.5-0.3,0.8-0.4c0.5-0.2,1-0.5,1.4-0.7c0.5-0.3,1.1-0.6,1.6-0.9    c0.5-0.3,1-0.6,1.5-0.8c0,0,0,0,0.1,0c0.3-0.2,0.6-0.4,1-0.6c1-0.6,2-1.2,2.9-1.8c0.3-0.2,0.6-0.4,0.9-0.6s0.6-0.4,0.9-0.6    c0.5-0.4,1-0.7,1.5-1.1c0.2-0.1,0.4-0.3,0.5-0.4l0.5-0.4c0.1-0.1,0.3-0.2,0.4-0.3c0.4-0.3,0.8-0.6,1.2-0.9c0,0,0.1-0.1,0.1-0.1    c0.5-0.3,0.9-0.7,1.3-1.1c0,0,0.1-0.1,0.1-0.1c0.4-0.3,0.7-0.6,1.1-1c0.4-0.4,0.9-0.8,1.3-1.2c0.4-0.4,0.7-0.7,1.1-1.1    c0,0,0,0,0,0l0,0c0.3-0.3,0.6-0.6,0.9-0.9c0.1-0.1,0.2-0.2,0.3-0.3c0.3-0.3,0.5-0.6,0.8-0.9c0.4-0.4,0.7-0.8,1-1.2    c0.3-0.4,0.6-0.8,0.9-1.1l0,0c0.1-0.2,0.3-0.4,0.4-0.6c0.1-0.2,0.2-0.3,0.3-0.5c0.3-0.5,0.6-0.9,0.8-1.4c0.1-0.2,0.2-0.3,0.3-0.5    c0.1-0.2,0.2-0.3,0.2-0.5c0.1-0.2,0.2-0.5,0.3-0.7c0.1-0.2,0.2-0.5,0.3-0.7c0.4-1,0.8-2,1-3c0,0,0-0.1,0-0.1    c0-0.2,0.1-0.4,0.1-0.6c0.1-0.2,0.1-0.5,0.1-0.7c0-0.3,0.1-0.6,0.1-0.9c0-0.3,0.1-0.5,0.1-0.8s0-0.5,0.1-0.8c0-0.3,0-0.5,0-0.8    C442.3,254.5,407.4,236.3,355.8,226.8z"/><path class="st0" d="M260.3,340.8c-1.2,0-2.4-0.1-3.5-0.1c-1.4,0-2.8-0.1-4.2-0.2l-0.1,0c-1.4-0.1-2.8-0.1-4.2-0.2    c-1.6-0.1-3.3-0.2-4.9-0.3c-1.2-0.1-2.4-0.1-3.5-0.2c-0.8,0-1.6-0.1-2.5-0.2c-0.8-0.1-1.7-0.1-2.5-0.2c-1-0.1-2.1-0.2-3.1-0.3    l-0.2,0c-1.3-0.1-2.7-0.2-4-0.4c-3.4-0.3-6.1-0.6-8.5-0.9l-3.5-0.4l-3.6-0.4c-0.3,0-0.5-0.1-0.8-0.1l-3.5-0.5    c-1.3-0.2-2.6-0.4-3.9-0.6c-0.9-0.1-1.9-0.3-2.9-0.5c-1.6-0.3-3.1-0.5-4.6-0.8c-1.2-0.2-2.5-0.4-3.7-0.6c-0.9-0.2-1.8-0.3-2.8-0.5    c-0.3-0.1-2.1-0.4-2.2-0.4l-2.2-0.4c-1.2-0.2-2.3-0.5-3.5-0.7c-2-0.4-4.1-0.9-6.6-1.5c-0.8-0.2-1.5-0.4-2.3-0.6    c-0.1,0-0.3-0.1-0.4-0.1c-0.8-0.2-1.6-0.4-2.4-0.6l-0.9-0.2l-2.7-0.7c-0.8-0.2-1.7-0.4-2.5-0.7c-1.7-0.5-3.6-1-5.4-1.6l-2.9-0.9    c-1.1-0.3-2-0.6-3-1c-1-0.3-2-0.7-3-1l-1.1-0.4c-0.6-0.2-1.2-0.4-1.8-0.7l-0.4-0.2c-0.4-0.1-0.7-0.3-1-0.4    c-1.5-0.5-2.9-1.1-4.3-1.7c-0.7-0.3-1.3-0.5-2-0.8c-0.2-0.1-0.3-0.1-0.5-0.2c-0.7-0.3-1.3-0.6-1.9-0.8c-0.5-0.2-1.1-0.5-1.6-0.7    c-0.5-0.2-1.1-0.5-1.6-0.8c-0.8-0.4-1.6-0.8-2.4-1.2c-0.3-0.1-0.6-0.3-0.9-0.4c-0.5-0.3-1-0.5-1.5-0.8c-0.5-0.3-1-0.5-1.5-0.8    l-0.3-0.2c-0.2-0.1-0.3-0.2-0.5-0.3l55,139.7l80.2-111.9C260.8,340.9,260.6,340.8,260.3,340.8z"/><path class="st0" d="M422.1,313.4l-0.2,0.1c-0.5,0.3-1,0.5-1.5,0.8c-0.4,0.2-1.5,0.8-1.5,0.8c-0.4,0.2-0.6,0.3-0.9,0.5    c-0.8,0.4-1.6,0.8-2.5,1.2c-0.5,0.2-1,0.5-1.6,0.7c-0.5,0.2-1,0.5-1.6,0.7c-0.6,0.3-1.3,0.6-1.9,0.8c-0.2,0.1-0.4,0.1-0.5,0.2    c-0.7,0.3-1.3,0.5-2,0.8c-1.4,0.6-2.9,1.1-4.3,1.7c-0.3,0.1-0.7,0.3-1,0.4l-0.4,0.1c-0.6,0.2-1.2,0.4-1.8,0.7l-1.1,0.4    c-1,0.3-2,0.7-3,1c-1,0.3-1.9,0.6-2.9,1l-2.9,0.9c-1.9,0.6-3.7,1.1-5.6,1.6c-0.8,0.2-1.6,0.4-2.5,0.7l-2.9,0.8l-0.8,0.2    c-0.8,0.2-1.6,0.4-2.4,0.6c-0.1,0-0.3,0.1-0.4,0.1c-0.8,0.2-1.6,0.4-2.4,0.6c-2.5,0.6-4.6,1-6.6,1.5c-1.1,0.2-2.3,0.5-3.5,0.7    l-2.2,0.4c-0.1,0-1.9,0.4-2.3,0.4c-0.9,0.2-1.8,0.3-2.8,0.5c-1.2,0.2-2.4,0.4-3.7,0.7c-1.4,0.3-3,0.5-4.5,0.7c-1,0.2-2,0.3-3,0.5    c-1.2,0.2-2.5,0.4-3.9,0.5l-3.4,0.5c-0.3,0-0.5,0.1-0.8,0.1l-4.2,0.5l-2.8,0.3c-2.5,0.3-5.2,0.6-8.6,0.9c-1.4,0.1-2.7,0.2-4.1,0.4    l-0.1,0c-1,0.1-2.1,0.2-3.1,0.3c-0.8,0.1-1.7,0.1-2.6,0.2c-0.8,0.1-1.6,0.1-2.5,0.2c-1.1,0.1-2.3,0.2-3.5,0.2    c-1.6,0.1-3.3,0.2-4.9,0.3c-1.4,0.1-2.8,0.1-4.2,0.2l-0.2,0c-1.4,0.1-2.9,0.1-4.3,0.2c-1.1,0-2.3,0.1-3.5,0.1c-0.3,0-0.5,0-0.8,0    l80.2,111.9l55-139.7C422.5,313.2,422.3,313.3,422.1,313.4z"/><path class="st1" d="M111.1,303.1c-0.3-0.3-0.6-0.5-0.9-0.7c-0.5-0.5-1.1-1-1.6-1.4c-0.4-0.4-0.9-0.8-1.3-1.2l-0.2-0.2    c-0.2-0.3-0.5-0.5-0.7-0.8l-0.1-0.2v115.6h0.3c-0.2,1-0.3,2.1-0.3,3.1c0,18.2,26.4,34.4,67.3,44.5l-62.4-158.4L111.1,303.1z"/><path class="st1" d="M441.4,299.5l-0.2,0.2c-0.4,0.4-0.8,0.8-1.3,1.2c-0.5,0.5-1,1-1.6,1.5c-0.3,0.2-0.5,0.5-0.8,0.7l-0.2,0.2    L375,461.7c40.9-10.1,67.3-26.3,67.3-44.5c0-1-0.1-2.1-0.3-3.1h0.3V298.5l-0.1,0.2C441.9,298.9,441.7,299.2,441.4,299.5z"/><path class="st1" d="M274.3,339.6l-1,1.4l-88.4,123.2c25.9,5.4,56.5,8.5,89.4,8.5c32.9,0,63.5-3.1,89.4-8.5L275.3,341L274.3,339.6    z"/><path class="st0" d="M310.2,253.1c-5.2-0.3-10.4,2.2-13.3,6.9c-4.3,6.9-2.2,15.9,4.7,20.2c6.9,4.3,15.9,2.2,20.2-4.7    c2.9-4.7,2.9-10.5,0.3-15l10.4-16L345,225L463.6,42.3l-20.2-12.6l-115.2,193l-11.9,19.9L310.2,253.1z"/><path class="st0" d="M242.7,220.8l18.9,14.2c-0.3,2-0.2,4,0.3,6c0.8,3.1,2.5,5.9,5.2,8c6.4,5,15.6,3.8,20.6-2.5    c1.3-1.6,2.1-3.4,2.6-5.3c1.4-5.5-0.4-11.5-5.2-15.2c-4.4-3.4-10.1-4-14.9-1.9l-5-4.1L68.1,60.4L53.5,79.1L242.7,220.8    L242.7,220.8z"/></g></g></svg>